<svg xmlns="http://www.w3.org/2000/svg" viewBox="0 0 24 24" width="24" height="24" fill="none">
<g stroke="currentColor" stroke-width="1.8" stroke-linecap="round" stroke-linejoin="round"><path d="M18.51 9.42 L20.80 10.09 L20.80 13.91 L18.51 14.58 L18.42 14.78 L19.57 16.87 L16.87 19.57 L14.78 18.42 L14.58 18.51 L13.91 20.80 L10.09 20.80 L9.42 18.51 L9.22 18.42 L7.13 19.57 L4.43 16.87 L5.58 14.78 L5.49 14.58 L3.20 13.91 L3.20 10.09 L5.49 9.42 L5.58 9.22 L4.43 7.13 L7.13 4.43 L9.22 5.58 L9.42 5.49 L10.09 3.20 L13.91 3.20 L14.58 5.49 L14.78 5.58 L16.87 4.43 L19.57 7.13 L18.42 9.22 Z"/><circle cx="12" cy="12" r="3"/></g>
</svg>
