<svg xmlns="http://www.w3.org/2000/svg" viewBox="0 0 96 96" width="96" height="96" fill="none">
<defs><clipPath id="clip-man-medium-dark"><circle cx="48" cy="48" r="48"/></clipPath></defs>
<circle cx="48" cy="48" r="48" fill="#D6E6FB"/>
<g clip-path="url(#clip-man-medium-dark)">
  <path d="M15 100 C17 79 31 73 48 73 C65 73 79 79 81 100 Z" fill="#5E9C8F"/>
  <path d="M40 73 L48 82 L56 73" fill="#E9F2EF"/>
  <rect x="42" y="60" width="12" height="14" rx="5" fill="#83522F"/>
  <circle cx="28" cy="48" r="5" fill="#9C6640"/>
  <circle cx="68" cy="48" r="5" fill="#9C6640"/>
  <ellipse cx="48" cy="47" rx="19" ry="21" fill="#9C6640"/>
  <path d="M29 44 C28 28 38 22 49 23 C60 24 68 30 67 43 C63 36 56 33 50 32 C43 33 35 37 29 44 Z" fill="#3A2C25"/>
  <circle cx="40" cy="48" r="2.6" fill="#1C110C"/>
  <circle cx="56" cy="48" r="2.6" fill="#1C110C"/>
  <circle cx="35" cy="55" r="3.6" fill="#F29E8E" opacity="0.5"/>
  <circle cx="61" cy="55" r="3.6" fill="#F29E8E" opacity="0.5"/>
  <path d="M42 57 Q48 62 54 57" stroke="#E3A08C" stroke-width="2.2" stroke-linecap="round"/>
  <path d="M36 58 C40 67 56 67 60 58 C58 64 38 64 36 58 Z" fill="#3A2C25" opacity="0.85"/>
</g>
</svg>
